<?xml version="1.0" standalone="no"?>
<svg style="width: 487.5px; height: 487.5px; justify-content: center; align-self: center; transform: scale(-1, 1);" viewBox="-350 -150 1500 1500" xmlns="http://www.w3.org/2000/svg"><g transform="rotate(0 493.7835159301758 578.3205757141113)"><g transform="translate(0 459)"><path d="M1102.99 305.357C1113.23 300.01 1123.24 294.201 1133.08 288.155C1140.01 284.008 1133.87 273.562 1126.76 277.336C1123.13 279.267 1119.51 281.217 1115.87 283.135C1118.73 280.672 1121.39 277.99 1123.76 275.067L1123.6 274.904C1132.76 266.693 1120.99 251.201 1110.57 257.946C1101.38 264.608 1092.1 271.406 1081.55 275.793C1059.7 285.059 1035.6 286.592 1012.14 286.86C1003.56 286.215 995.364 287.702 987.036 289.359C990.301 276.261 998.472 266.37 1002.81 253.684C1006 240.876 987.516 232.151 980.964 244.463C979.356 247.486 977.823 250.544 976.324 253.618C962.162 266.499 938.514 265.364 924.231 279.195C916.095 286.416 912.114 296.213 910.541 306.047C909.473 312.724 911.133 319.418 907.096 325.332C887.577 352.94 856.735 396.578 841.072 426.961C829.982 354.763 800.371 265.463 769.78 199.446C759.664 178.333 748.091 157.703 732.899 139.807C734.621 133.839 728.543 123.245 724.678 126.506C712.781 111.973 691.751 108.21 674.841 100.985C652.014 91.2244 633.075 70.9357 623.765 47.8762C611.803 3.96415 582.356 -1.61372 541.517 0.327016C502.433 0.277947 473.516 16.9946 464.988 56.7808C447.663 86.9784 406.757 81.9844 377.328 89.9786C355.76 94.9056 334.829 102.523 314.937 112.194C292.808 91.2034 213.553 179.298 206.349 201.97C210.59 202.792 214.805 203.781 218.982 204.987C222.702 206.063 221.14 211.682 217.388 210.782C212.719 209.661 208.02 208.889 203.299 208.353C203.155 208.804 203.029 209.253 202.935 209.697C202.405 209.661 201.876 209.616 201.346 209.58C202.521 210.191 203.652 210.901 204.754 211.817C207.418 214.029 203.95 218.298 201.119 216.535C198.452 214.54 194.959 214.855 191.76 214.185C191.57 220.763 168.097 213.404 164.451 211.224C148.246 209.197 131.575 211.372 116.447 203.557C96.3179 199.318 76.0379 194.63 56.1349 189.232C50.8659 191.286 45.9139 198.636 50.0989 204.03C52.4529 206.484 49.4269 210.492 46.4629 208.747C36.5219 202.896 28.8339 193.762 22.3159 183.922C19.2479 180.827 13.8019 181.493 9.67988 180.208C9.12888 181.199 8.80388 182.302 8.80888 183.434C-8.67612 186.312 3.79688 205.409 12.5869 211.359C7.92388 214.395 7.74688 220.341 8.15488 225.306C7.16688 227.074 6.83688 229.266 7.69688 231.248C10.9849 238.825 18.0959 245.206 23.5029 251.345C29.4729 258.124 34.7959 264.941 42.0599 270.437C69.7479 291.542 103.161 303.342 137.439 307.957C149.61 309.826 167.117 312.687 174.653 322.979C172.804 335.193 169.409 346.907 166.329 358.817C162.022 374.627 162.315 391.178 162.258 407.296C161.656 406.812 160.5 406.912 160.328 407.834C159.326 414.515 158.581 421.347 154.52 426.961C150.96 437.4 148.591 448.535 147.26 459.503C141.928 511.498 140.655 565.027 152.677 616.212C157.316 635.201 164.861 653.247 175.141 669.865C178.206 674.821 183.134 676.273 187.559 675.299C202.369 682.993 221.026 685.46 236.989 683.505C291.41 668.099 272.448 705.197 348.751 693.837C480.458 677.059 613.562 710.029 744.989 690.672C748.226 715.674 790.6 708.502 805.319 697.932C849.453 665.123 871.367 561.247 893.516 508.552C908.741 467.018 934.235 393.454 967.622 365.584C977.633 357.754 989.734 353.632 1001.84 350.304C1047.03 338.66 1092.39 327.648 1137.67 316.327C1145.34 314.437 1143.96 301.342 1135.75 302.182C1124.86 303.297 1113.92 304.306 1102.99 305.357Z" transform="translate(-86.00008 -22.00066)" fill="#FFFFFF" stroke="none"></path><path d="M99.7948 270.318C96.7348 269.938 93.7348 268.848 90.7548 267.988C86.2048 266.658 81.7448 265.108 77.3548 263.338C68.2948 259.709 59.5048 255.418 51.2648 250.168C37.9548 241.678 26.1948 230.798 17.3248 217.698L16.7159 216.785C11.652 209.071 2.31124 191.944 12.7848 186.088C6.03454 180.448 -0.345455 170.318 0.014545 162.498C0.524545 151.438 14.0845 151.589 21.0945 156.278C25.6845 159.348 29.1245 163.648 32.5745 167.879C36.3945 172.578 40.4745 177.058 44.7145 181.368C45.8395 182.508 46.9758 183.625 48.1317 184.725L49.2944 185.818C49.1145 185.388 48.9545 184.948 48.8145 184.497C46.4745 177.208 49.2645 167.718 56.5545 164.378C61.0158 162.333 65.6489 163.582 69.972 165.318L70.6345 165.588C76.4545 167.997 82.3445 170.128 88.4045 171.838C113.105 178.808 138.885 179.968 164.195 183.448C173.945 184.798 183.875 186.497 193.575 188.997C197.274 173.288 206.344 158.229 216.184 145.839C263.304 86.5676 341.014 66.9786 412.104 54.2986C415.495 53.6969 418.582 55.7589 421.295 57.5712C423.766 59.2224 425.927 60.666 427.725 59.6982C434.875 55.8582 441.165 50.4182 446.685 44.5082C458.455 31.8982 466.805 17.0682 476.615 3.01824C481.465 -3.92176 492.625 2.28824 488.125 9.73824L485.92 13.3792C476.843 28.2929 466.792 43.6624 453.775 55.2282C446.855 61.3682 439.175 66.2182 430.395 69.2472C423.745 71.5382 414.415 73.4682 407.135 71.2472L406.261 69.9746C406.55 70.4002 406.841 70.8246 407.135 71.2479C426.134 98.7778 449.974 122.078 475.094 144.068C500.45 166.252 527.803 186.117 555.321 205.54L557.614 207.158C602.444 174.459 640.314 131.808 666.884 83.0788C661.315 82.408 655.805 78.839 651.045 76.178C645.315 72.959 639.925 69.118 635.725 63.998C626.575 52.848 627.765 38.478 626.115 24.948C626.015 24.108 627.125 23.898 627.635 24.318C632.595 28.438 634.335 35.188 636.405 41.018C638.685 47.428 641.265 52.709 646.495 57.218C651.365 61.419 657.305 64.508 663.075 67.258C666.05 68.6691 680.822 72.2953 682.504 75.2985C708.025 69.3083 732.885 79.6583 751.795 97.1183C770.065 113.988 783.475 135.918 795.315 157.568C807.945 180.668 818.295 204.747 827.215 229.497C836.255 254.618 843.185 280.288 846.995 306.728C850.211 329.02 852.183 351.661 853.459 374.201L853.615 377.018C872.494 347.388 891.844 318.068 911.594 289.008C907.104 277.018 912.074 264.778 920.484 255.518C929.804 245.268 942.694 240.508 955.024 234.968L956.645 234.235C962.588 231.524 968.511 228.539 973.644 224.478C978.584 220.558 982.214 215.158 987.414 211.548C994.974 206.288 1008.69 207.408 1009.04 218.898C1009.22 225.209 1006.51 232.128 1004.03 237.798C1001.22 244.209 997.434 250.018 992.934 255.358C992.726 255.607 992.499 255.803 992.268 255.959L992.094 256.068C998.315 257.098 1004.58 257.928 1010.97 258.218C1023.86 258.808 1036.89 257.858 1049.51 255.138C1062.43 252.358 1074.95 247.839 1086.57 241.538C1096.5 236.158 1105.7 229.198 1116.98 227.558C1118.02 227.398 1119.07 227.298 1120.15 227.238C1121.95 227.138 1123.75 229.258 1123.04 231.037C1122.65 232.018 1122.24 232.988 1121.79 233.968C1117.89 242.558 1111.91 250.891 1104.45 257.216L1103.87 257.698C1106.5 256.788 1109.09 255.768 1111.64 254.618C1126.63 247.868 1140.23 237.668 1156.3 233.568C1157.06 233.368 1157.83 233.188 1158.6 233.018C1163.57 231.948 1166.19 237.348 1163.27 241.048C1162.8 241.648 1162.33 242.238 1161.84 242.828C1154.67 251.728 1146.76 259.988 1138.04 267.408C1135.05 269.948 1131.97 272.408 1128.83 274.759C1138.67 271.778 1148.37 268.248 1157.86 264.339C1161.63 262.788 1164.56 266.608 1164.96 269.748C1166.29 280.122 1154.95 287.666 1147.34 292.725L1147.02 292.938C1139.4 298.019 1131.01 301.879 1122.42 304.978C1105.91 310.947 1088.56 313.657 1071.24 316.086L1062.83 317.258C1029.53 321.914 994.755 327.48 970.864 353.389C957.474 367.908 948.414 385.948 940.124 403.698C931.844 421.429 924.574 439.629 917.674 457.929C910.524 476.868 904.294 496.158 897.674 515.288C891.594 532.853 884.332 550.194 877.139 567.359L876.004 570.068C860.734 606.549 842.494 640.908 817.074 671.368C812.884 676.398 806.114 669.259 809.984 664.278C836.574 629.998 855.074 589.549 870.344 549.198C877.294 530.839 883.114 512.038 889.794 493.578L893.769 482.612C899.077 467.993 904.43 453.393 910.014 438.889C917.084 420.538 924.854 402.408 933.744 384.868L934.688 383.021C943.391 366.1 953.732 349.423 967.964 336.618C993.582 313.559 1027.67 308.027 1060.63 303.646L1071 302.279C1084.93 300.428 1098.9 298.384 1112.45 294.658C1120.27 292.519 1127.91 289.778 1135.09 285.998C1137.95 284.498 1140.74 282.849 1143.44 281.049C1135.74 283.309 1127.93 285.158 1119.98 286.608C1116.09 287.318 1112.24 287.849 1108.4 288.219C1098.51 289.198 1088.7 289.158 1078.57 288.629C1077.71 288.578 1077.43 287.229 1078.35 287.059C1085.41 285.804 1092.47 284.235 1099.51 282.533L1101.61 282.018C1101.65 280.849 1102.11 279.608 1103.07 278.429C1106.57 274.169 1113.22 271.988 1117.83 268.978C1122.66 265.828 1127.34 262.429 1131.8 258.788C1135.88 255.459 1139.8 251.938 1143.57 248.258C1133.39 252.959 1123.74 258.988 1113.11 262.709C1104.66 265.678 1095.8 267.678 1086.86 268.388L1086.31 268.432L1085.75 268.468C1076.42 269.138 1067.03 268.868 1057.84 270.888C1056.81 271.118 1056.49 269.738 1057.41 269.348C1065.44 266.008 1073.79 264.718 1082.23 263.158C1082.41 262.498 1082.87 261.908 1083.67 261.528L1085.83 260.497C1092.26 257.409 1098.26 254.291 1103.6 249.278C1108.32 244.848 1112.25 239.669 1115.2 233.928C1103.39 236.518 1093.02 245.468 1082.28 250.498C1070.58 255.988 1058.2 259.928 1045.48 262.169L1044.04 262.417C1020.26 266.382 991.68 265.877 970.385 253.518C969.705 253.118 970.195 252.209 970.895 252.318C976.935 253.308 982.915 254.478 988.895 255.518C987.724 254.448 987.204 252.528 988.554 250.988C993.925 244.833 998.173 237.798 1000.89 230.1L1001.41 228.595C1001.46 228.431 1001.52 228.262 1001.58 228.09C1002.84 224.519 1004.67 219.331 1002.61 216.258C1000.55 213.188 995.704 213.608 992.804 214.908C986.774 217.628 982.764 224.419 977.684 228.518C972.144 232.998 965.844 236.318 959.394 239.288L958.032 239.907C946.876 244.925 934.956 249.15 926.184 258.008C921.464 262.768 917.404 268.718 916.044 275.388C915.424 278.448 915.424 281.598 916.244 284.628C916.439 285.339 916.698 285.968 916.944 286.566C917.518 287.96 918.02 289.182 917.474 290.868C916.454 293.978 912.844 297.698 910.984 300.468C908.824 303.669 906.674 306.878 904.524 310.088C900.234 316.508 895.964 322.948 891.694 329.378C883.154 342.258 874.704 355.198 866.324 368.178C863.598 372.405 860.88 376.636 858.171 380.871L854.115 387.228L854.04 387.346L854.115 387.228L854.155 388.178C854.305 391.548 852.285 393.448 849.835 393.938L848.315 396.327C848.445 396.858 848.435 397.418 848.265 397.907C847.641 399.683 846.474 400.897 845.023 401.777L844.764 401.928C823.424 435.658 802.424 469.608 781.214 503.419C780.084 513.738 779.024 524.068 778.104 534.398C776.014 557.778 774.584 581.219 774.124 604.688C773.964 612.986 774.406 621.321 774.847 629.634C775.01 632.703 775.172 635.768 775.304 638.828C775.544 644.245 775.873 649.656 776.302 655.064L776.617 658.898C777.04 664.167 777.279 669.397 775.384 674.419C773.704 678.828 768.584 679.818 765.554 676.459C726.025 674.868 686.465 673.658 646.905 672.908C576.095 671.548 505.255 671.758 434.435 673.128C398.865 673.818 363.285 674.788 327.725 675.988C310.205 676.568 292.675 677.388 275.145 677.628C265.7 677.757 250.835 674.318 250.073 663.692L250.055 663.368C248.875 663.688 247.655 663.948 246.405 664.138C245.848 664.224 245.314 664.199 244.82 664.084L244.575 664.019C232.232 667.78 217.024 663.539 204.447 660.031C202.677 659.538 200.959 659.059 199.309 658.619L198.205 658.328C185.435 654.998 175.175 650.238 166.805 639.658C152.155 621.129 147.155 596.248 144.555 573.318C142.115 551.738 141.975 529.759 144.945 508.219C143.195 490.669 144.905 472.559 146.895 455.108C147.875 446.478 149.025 437.858 150.405 429.278C151.175 424.488 152.185 419.748 153.215 415.018C153.626 413.128 153.968 411.093 154.49 409.126L154.725 408.288C153.125 408.498 151.375 408.148 149.685 407.219C145.665 405.009 144.495 400.538 144.425 396.259C144.22 384.277 145.534 371.978 146.812 360.016C146.91 359.098 147.008 358.182 147.105 357.269C148.475 344.469 150.355 331.618 152.815 318.978L153.451 315.719C155.315 306.264 157.448 296.503 161.205 287.618C147.095 285.219 133.025 282.669 119.335 278.328C112.655 276.198 106.075 273.549 99.7948 270.318ZM76.7444 254.219C77.4244 254.858 78.1144 255.498 78.8048 256.108C74.3249 254.328 69.9148 252.388 65.6049 250.188C52.9748 243.738 41.3048 235.448 31.6748 224.988C26.9248 219.838 22.7848 214.198 19.3548 208.088C17.2548 204.368 11.0448 191.928 18.5547 191.299C19.0947 191.248 19.7147 191.259 20.4147 191.349C26.9547 192.169 33.2147 197.719 38.8547 200.799C45.0847 204.209 51.5047 207.219 58.0747 209.898C63.9847 212.309 69.9948 214.568 76.0847 216.568L76.5197 216.712L76.9548 216.849C86.7048 220.038 96.6847 222.608 106.775 224.219C106.975 224.248 107.135 223.979 106.925 223.868C91.0747 215.959 74.0648 210.648 58.0447 203.118C49.9847 199.339 42.0747 195.299 34.5047 190.608C30.1447 187.908 24.9347 184.559 19.5547 184.419L19.0052 183.741C18.6867 183.353 18.3334 182.926 17.9534 182.467C12.6862 176.107 2.31046 163.578 9.12455 160.158C15.7195 156.844 23.3564 166.427 27.9968 172.251C28.8306 173.297 29.5677 174.222 30.1845 174.929L30.7569 175.58C42.2591 188.576 57.1065 199.56 73.4246 205.648C73.7945 205.778 73.9645 205.248 73.6845 205.049C72.6245 204.299 71.5745 203.549 70.5246 202.788L71.5406 203.19C72.8897 203.719 74.2145 204.216 75.4946 204.688C82.4345 207.258 89.5746 209.287 96.8245 210.718L96.9911 210.751C103.537 212.031 110.16 213.325 116.745 211.787C119.165 211.218 118.765 208.008 116.745 207.268C111.505 205.338 106.025 205.088 100.565 204.098C95.1046 203.108 89.7045 201.778 84.4146 200.098C75.6245 197.318 63.9445 193.738 58.1345 186.018C55.7645 182.868 54.8245 178.968 56.4045 175.218C58.6245 169.948 63.1845 170.918 67.6545 172.658L68.9836 173.175C78.73 176.936 88.4815 180.074 98.7545 182.188C129.335 188.488 162.465 187.908 192.855 196.098C203.485 198.948 213.785 202.878 223.515 208.548C237.105 216.458 248.835 227.488 256.915 240.878C257.245 247.528 257.535 254.028 258.495 260.638C259.207 265.557 260.041 270.453 260.903 275.344L262.465 284.148C265.095 299.108 268.265 313.988 271.205 328.898C277.085 358.728 282.985 388.568 287.325 418.668C295.645 476.278 297.465 535.218 282.795 591.997C277.135 613.938 269.475 635.678 252.605 650.609L252.595 650.618C251.951 650.867 251.311 651.118 250.673 651.367C243.376 654.223 236.409 656.95 228.225 656.059C218.635 655.009 209.035 651.538 199.735 649.089L199.172 648.939C188.892 646.171 180.851 642.352 174.065 633.759C160.759 616.919 155.849 593.448 153.297 572.524L153.115 570.998C150.525 548.868 150.415 526.068 153.945 504.038C159.225 471.059 171.055 439.658 181.365 408.028L181.973 406.163L182.921 403.221C192.481 373.386 200.96 342.17 198.915 310.778C199.595 309.998 199.955 308.899 199.775 307.469C199.455 305.028 198.815 302.689 197.865 300.519C197.535 298.179 195.725 296.669 195.725 296.669C193.845 293.939 191.355 291.618 188.265 289.889C185.085 288.109 180.275 286.618 176.055 286.969C172.265 285.769 160.824 282.575 160.824 282.575C141.037 277.273 120.89 272.806 102.884 263.209C100.224 261.799 97.6144 260.278 95.0645 258.618C83.9445 251.408 71.9445 240.509 67.7344 227.488L67.681 227.324C67.6242 227.152 67.5672 226.988 67.5127 226.832C67.0535 225.513 66.7759 224.715 68.3244 224.179C69.2345 223.853 70.5878 224.18 71.7215 224.511L73.657 225.082C77.1999 226.162 80.5245 227.737 83.7445 229.538C89.8145 232.929 95.4344 237.038 101.374 240.618C115.714 249.268 132.244 250.429 147.864 255.698C150.314 256.528 151.614 253.379 150.194 251.698C144.544 245.038 135.764 244.009 127.664 242.408L126.852 242.244C118.223 240.459 110.841 237.409 103.364 232.639C96.4645 228.238 89.8745 223.248 82.4044 219.818C80.6844 219.018 78.7544 218.179 76.7544 217.478C76.4644 217.379 76.1744 217.278 75.8845 217.188C71.4044 215.738 66.5644 215.139 62.5444 217.528C55.8158 221.522 59.3316 229.419 62.1948 234.963L63.1199 236.723C66.6353 243.228 71.383 249.147 76.7444 254.219ZM205.315 227.509C211.285 228.038 217.135 229.309 222.715 231.509L223.253 231.719C227.38 233.312 233.415 235.314 234.765 239.719C235.145 240.969 234.125 241.998 232.955 242.099C230.035 242.333 226.776 240.377 223.712 238.537C222.073 237.553 220.49 236.602 219.045 236.038C214.425 234.238 209.585 232.898 204.685 232.188C193.675 230.578 182.195 231.799 171.835 235.809C171.225 236.049 170.845 235.078 171.395 234.788C181.835 229.108 193.445 226.459 205.315 227.509ZM835.615 404.738C835.825 404.678 836.035 404.618 836.254 404.568C822.164 427.158 808.364 449.928 794.874 472.879C790.444 480.408 786.204 488.028 782.064 495.709L782.601 490.894C785.297 466.82 788.132 442.759 790.045 418.618C799.175 414.328 808.775 411.568 818.595 409.098C824.275 407.658 829.975 406.318 835.615 404.738ZM158.165 406.959C158.186 409.001 157.888 411.101 157.599 413.136C157.482 413.96 157.367 414.773 157.275 415.568C156.755 420.049 156.335 424.549 155.805 429.028C154.725 438.028 153.805 447.038 153.135 456.078C152.705 461.849 152.425 467.639 152.175 473.429C157.845 452.238 165.355 431.509 172.495 410.748C171.301 410.622 170.081 410.33 168.823 409.996L166.704 409.426C165.455 409.104 161.402 408.107 158.165 406.959Z" transform="translate(-88.75005 5.250063)" fill="#fbf2c4" fill-rule="evenodd" stroke="none"></path></g><g transform="translate(225 0)"><g><g><path d="M384.074 176.065C380.362 146.444 368.702 114.995 356.439 87.38C328.865 28.994 265.738 20.9554 209.147 8.91741C153.303 0.787412 94.1677 -6.55359 39.1657 9.66741C8.24474 17.2424 -3.83226 54.0684 1.04774 83.1294C3.83274 101.238 12.0757 118.377 19.1047 135.16C33.0757 169.626 41.9397 206.525 41.9547 243.841C40.9957 268.227 37.5537 296.061 65.5777 306.39C92.2448 319.651 94.4977 355.599 127.889 375.995C141.391 403.344 178.17 405.751 204.641 412.095C221.372 415.297 238.292 417.654 255.258 419.176C304.384 425.471 343.684 411.236 369.4 367.474C386.609 340.841 399.424 310.089 396.258 277.811C393.105 243.821 387.852 210.009 384.074 176.065Z" transform="translate(23.99986 75.99989)" fill="#FFFFFF" stroke="none"></path><path d="M249.317 2.38364C246.695 -0.129364 242.375 -1.21936 239.571 1.95864C235.2 2.81364 231.109 5.05064 228.08 8.44664C226.905 6.91864 225.641 5.44264 224.283 4.02864C222.273 1.94864 218.613 1.41764 216.133 2.97764C212.893 5.01764 210.053 7.47764 207.643 10.2676C205.573 10.2986 203.503 10.3376 201.443 10.3876C198.913 7.19864 195.593 4.91764 190.933 5.10864C185.853 5.30764 182.143 7.78764 179.423 11.4576L177.113 11.6176C176.603 10.7676 176.093 9.91764 175.543 9.07764C173.023 5.21864 168.573 4.99764 165.153 7.73864C163.063 9.40864 161.173 11.2676 159.473 13.2586C157.863 13.4376 156.263 13.6176 154.663 13.8186C151.783 10.8986 148.053 8.84764 143.923 8.68764C137.293 8.43764 133.343 12.0376 131.033 17.2076C131.003 17.2186 130.983 17.2186 130.963 17.2186C126.543 13.6876 120.773 11.7476 115.153 13.1376C110.203 14.3676 106.983 17.0776 104.963 20.5776L103.673 20.8476C99.6227 19.3776 95.0527 19.1986 90.5627 20.9486C86.6727 22.4576 83.3427 24.9686 80.8127 28.1086C80.0627 28.3476 79.3127 28.5876 78.5727 28.8476C77.4527 29.2386 76.3827 29.6676 75.3527 30.1486C73.5327 29.8776 71.5527 29.8586 69.4227 30.1586C63.9527 30.9086 59.5027 34.3876 57.2227 39.1876C54.5427 38.8986 51.7627 39.2476 49.1227 40.4376C42.6927 43.3476 38.3527 49.7586 37.0027 56.5776C36.5627 58.7876 36.4527 60.9686 36.6127 63.1176C33.9727 63.2076 31.8127 64.0576 29.8827 66.3876C27.5427 69.1986 25.5227 72.9886 24.4427 76.4776C24.2727 77.0486 24.1227 77.6176 24.0027 78.1986C20.8027 80.9286 18.6127 84.7786 17.8627 89.1876C17.4127 91.7986 17.3727 94.2076 17.6527 96.4686C13.4727 99.1376 10.2027 103.159 8.82267 108.208C7.13267 114.338 7.96267 120.168 10.4127 125.418L10.2427 125.958C6.82267 127.848 3.91267 130.719 1.87267 134.838C-2.67367 143.999 1.58427 151.447 8.99132 157.292L9.55267 157.728C9.57267 157.819 9.59267 157.909 9.60267 157.998C7.18267 160.888 5.39267 164.319 4.50267 168.088C2.31267 177.359 5.92267 183.489 11.9227 187.878C7.82267 192.958 5.77267 199.558 7.51267 206.179C9.25267 212.759 14.1327 217.688 20.0327 220.688C20.1127 220.978 20.2027 221.279 20.2927 221.569C19.2127 223.868 18.5127 226.418 18.3327 229.248C17.7727 237.788 22.6927 245.489 29.7427 249.958C29.9927 250.469 30.2527 250.969 30.5227 251.458C28.6027 255.348 28.2827 259.668 30.8027 264.359C32.6227 267.759 35.6727 270.138 39.1127 271.728C40.2127 274.078 41.9227 275.989 43.9927 277.378C43.5627 280.188 43.6827 283.098 44.5027 285.978C46.1027 291.549 49.4727 295.808 53.7427 298.618C53.5227 299.109 53.2927 299.588 53.0927 300.098C50.4627 306.859 57.7427 313.558 64.2227 312.478C63.0127 315.338 62.0327 318.308 61.3327 321.359C57.2027 339.449 62.1227 362.859 79.5327 372.529C83.8127 374.899 88.3627 375.899 93.1727 376.518C98.3427 377.179 104.193 377.208 108.333 380.819C115.113 386.739 117.553 397.489 121.843 405.128C127.473 415.159 134.793 424.399 143.253 432.179C147.703 436.279 152.513 440.038 157.543 443.378C157.928 443.634 158.32 443.9 158.718 444.17C163.125 447.158 168.236 450.624 173.373 447.368C174.673 446.538 175.683 445.078 175.603 443.478C175.353 438.888 172.703 436.819 169.003 434.649L168.003 434.056C164.348 431.863 160.811 429.455 157.493 426.779C150.653 421.248 144.383 414.808 139.263 407.638C134.837 401.446 131.507 394.824 128.268 388.021L126.813 384.949C123.323 377.569 118.663 370.438 111.003 366.909C102.823 363.138 92.6827 365.319 85.1127 360.239C78.7227 355.949 75.3327 347.958 74.1627 340.609C72.0227 327.299 76.9227 313.688 87.1927 305.319C90.1527 304.268 93.0927 303.159 96.0027 301.938C98.2927 300.969 100.583 299.978 102.823 298.909C105.853 298.638 108.913 298.808 111.823 299.388C117.603 300.558 124.543 302.529 129.423 306.549C127.213 305.569 125.053 304.449 122.933 303.498C121.323 302.779 120.143 304.799 121.563 305.838C124.953 308.348 128.903 310.719 131.763 313.828C132.963 315.128 135.073 314.978 136.293 313.828C141.273 309.113 139.488 302.804 137.785 296.783C137.118 294.426 136.463 292.113 136.233 289.958C135.853 286.458 137.103 284.509 140.053 282.618C144.613 279.688 149.473 277.578 153.423 273.719C160.973 266.348 163.583 255.918 164.413 245.728C164.966 238.857 164.847 231.941 164.728 225.023C164.636 219.679 164.545 214.334 164.763 209.009C165.273 196.509 165.733 183.168 168.753 170.978C169.953 166.159 171.883 162.239 176.643 160.199C182.193 157.828 188.733 157.228 194.623 156.179L197.472 155.678C224.077 151.06 250.885 147.891 277.823 146.018C309.409 143.836 341.093 143.45 372.72 144.771C377.039 146.767 381.075 149.395 384.683 152.571C393.894 179.664 400.989 207.37 405.603 235.649C410.823 267.628 414.053 300.128 416.503 332.429L416.588 333.571C417.828 350.336 418.336 367.445 414.963 383.998C412.253 397.279 407.163 409.848 400.133 421.429C385.863 444.929 363.663 463.799 337.573 472.808C321.803 478.248 305.133 480.328 288.503 479.159C271.443 477.969 255.803 472.649 240.413 465.489C232.283 461.708 225.283 473.009 233.273 477.708C260.373 493.688 295.823 496.438 326.043 489.458C355.313 482.688 381.223 465.498 399.533 441.779C418.893 416.688 427.913 386.359 427.893 354.828C427.885 340.889 426.682 326.951 425.331 313.058L423.794 297.429C422.228 281.734 420.296 266.099 417.793 250.518C412.773 219.286 405.461 187.417 391.514 158.776C394.026 159.556 396.974 157.773 397.887 155.246L398.099 154.685C400.223 149.345 404.227 146.362 407.458 141.788C409.036 139.556 409.831 137.187 409.978 134.773C410.061 134.5 410.145 134.229 410.213 133.949C410.305 133.733 410.395 133.515 410.484 133.295L411.011 131.977C417.171 128.342 420.257 121.323 418.522 114.52C420.094 113.021 421.491 111.365 422.629 109.53C427.3 104.208 428.69 96.3556 425.793 89.7756C428.355 87.6456 430.636 85.2096 432.433 82.3186C436.613 75.5976 437.373 66.3186 433.513 59.2786C430.693 54.1486 425.733 50.9976 420.273 50.1676C420.063 49.0486 419.833 47.9286 419.563 46.8276C421.493 39.9486 420.193 32.9286 414.363 28.0776C412.523 26.5486 410.433 25.3876 408.213 24.5686C407.993 24.3276 407.783 24.0876 407.563 23.8586C403.443 19.5086 398.513 16.4576 393.173 14.3186C390.133 7.17864 383.593 1.37764 375.703 0.807636C369.607 0.373636 364.32 3.34964 360.001 7.48564C357.271 4.61864 353.843 2.40964 349.939 1.23064C347.25 0.418636 344.274 0.216636 341.454 0.728636C337.168 0.746636 333.322 2.60664 330.501 5.84264C325.659 2.06964 319.817 -0.367364 313.74 0.0646357C309.392 0.373636 305.902 2.59464 303.743 5.70764C301.578 3.51064 299.052 1.84264 295.507 1.64464C291.535 1.42364 288.428 2.88564 285.965 5.21564C280.852 1.78964 274.653 0.489636 267.653 3.04864C266.673 3.40864 265.773 3.82764 264.933 4.29864C261.471 4.17164 257.77 4.17164 254.24 4.62464C252.678 3.63464 251.024 2.88664 249.317 2.38364ZM62.4147 92.1756L62.2091 92.3268C59.0662 94.7077 59.5717 97.6908 62.1577 100.425C64.8117 103.23 60.5737 107.478 57.9147 104.667C55.5247 102.14 53.6967 99.0256 53.9337 95.4336C54.1777 91.7376 56.4957 89.0576 59.3857 86.9946C62.5377 84.7456 65.5307 89.9516 62.4147 92.1756ZM45.7417 137.499C48.6427 134.939 44.3857 130.708 41.4987 133.257C38.8047 135.635 36.8067 138.865 37.3257 142.58C37.8547 146.366 40.7097 149.039 43.8347 150.928C47.1467 152.931 50.1657 147.745 46.8627 145.747L46.4916 145.52C45.1051 144.659 43.4823 143.475 43.2477 141.781C42.9987 139.981 44.5217 138.576 45.7417 137.499ZM95.7607 147.408L95.6733 147.657C94.6511 150.718 95.6677 153.061 98.7027 154.388C100.185 155.035 100.536 157.227 99.7787 158.492C98.8777 159.995 97.1697 160.222 95.6747 159.568C90.2807 157.21 87.9797 151.273 89.9757 145.812C91.2927 142.209 97.0887 143.775 95.7607 147.408ZM92.3927 319.508C97.0627 316.848 103.343 319.728 107.863 321.988C113.373 324.738 118.843 328.888 122.213 334.088C126.803 341.168 116.013 346.888 111.183 340.538C108.213 336.628 105.843 332.688 102.243 329.268C98.9527 326.128 94.1827 324.028 92.2927 319.888C92.2227 319.748 92.2427 319.588 92.3927 319.508Z" transform="translate(-6.000067 12.00026)" fill="#fbf2c4" fill-rule="evenodd" stroke="none"></path></g></g><g transform="translate(159 186)"><g><path d="M41.4494 4.01602L43.4942 3.23283C50.5004 0.586187 60.1193 -2.47302 65.8154 3.22402C69.3294 6.73702 69.9984 11.912 67.4904 16.199C64.4514 21.392 59.0004 21.52 53.7364 22.285C47.7494 23.155 41.6604 24.809 36.0864 27.167C29.8074 29.824 23.9804 33.136 18.2714 36.835C12.8454 40.35 7.43842 46.095 0.943418 47.178C0.678418 47.222 0.377418 47.108 0.308418 46.817C-1.16658 40.467 2.93242 34.218 6.59042 29.264C11.0164 23.266 16.3794 18.343 22.3734 13.929C28.1584 9.66802 34.7684 6.58902 41.4494 4.01602ZM169.341 26.4832L168.717 26.5926C162.076 27.8106 155.56 29.3316 148.826 30.0316C141.935 30.7466 135 31.2656 128.076 31.4636C126.406 31.5116 124.603 31.4546 122.749 31.396C117.994 31.2457 112.907 31.0848 108.891 32.6576C107.515 33.1966 106.852 34.8626 108.002 36.0266C111.201 39.2657 116.243 40.58 120.647 41.838L123.074 42.5416C128.35 44.0237 133.815 44.9635 139.231 45.7316C151.069 47.4096 164.116 47.7756 175.895 45.5596C179.384 44.9036 181.788 41.7226 182.863 38.5916C184.028 35.1976 183.086 31.8706 180.642 29.3036C177.44 25.9388 173.59 25.7759 169.341 26.4832ZM38.072 56.8927C42.707 49.9387 53.287 50.9627 55.84 59.2147C56.6948 61.9774 56.2916 64.5675 55.8824 67.197C55.6295 68.8218 55.3742 70.4617 55.412 72.1667C55.495 75.9377 55.248 80.1397 54.092 83.7917C51.456 92.1197 43.966 98.0017 35.105 97.7577C26.273 97.5147 18.494 91.9247 14.795 84.0517C11.083 76.1487 11.869 67.9697 14.579 59.9337C14.709 59.5477 15.215 59.3607 15.52 59.6857C18.7234 63.0899 21.0684 66.6836 23.4948 70.4959L25.9814 74.4029C27.8818 77.3449 30.6436 81.1033 34.192 80.8672L34.7244 80.8147C35.1533 80.7778 35.3671 80.7941 35.5343 80.7136C35.7515 80.609 35.8902 80.3412 36.32 79.5817C36.672 78.9597 36.608 77.8037 36.778 77.0697L36.837 76.8217L36.8049 76.6881C36.7298 76.3326 36.6553 75.6628 36.5948 74.5004L36.582 74.2437C36.5312 73.1692 36.4304 72.0342 36.3268 70.8665C35.9058 66.1255 35.437 60.846 38.072 56.8927ZM171.394 57.2342C167.237 50.6532 154.733 52.6282 155.564 61.5222C156.092 67.1692 159.584 70.7392 160.987 75.9872C162.075 80.0522 160.446 82.3812 156.182 81.8332C151.725 81.2602 148.784 77.5842 146.845 73.8122C144.965 70.1552 144.45 65.0352 141.288 62.2282C141.011 61.9822 140.607 62.0232 140.405 62.3422C137.059 67.6052 139.798 77.4572 142.553 82.5032C145.643 88.1582 151.505 91.8832 157.93 92.3772C164.658 92.8932 170.895 89.6352 173.763 83.4722C175.584 79.5592 175.389 75.1952 174.897 71.0002L174.673 69.0616C174.193 64.9772 173.562 60.6661 171.394 57.2342ZM128.749 115.04C136.872 103.66 125.366 92.9573 117.815 88.3673C115.836 86.9473 117.407 82.2435 121.634 82.9705C160.031 89.5675 140.136 155.708 91.1125 119.413C85.276 114.705 92.344 104.334 98.6347 108.366C98.9537 108.611 99.2882 108.869 99.6369 109.139C106.705 114.603 119.636 124.601 128.749 115.04ZM113.944 165.352C115.478 162.685 119.01 160.214 122.242 160.593C136.721 162.291 136.696 179.845 131.105 190.093C126.148 199.18 115.889 204.514 105.621 203.735C94.8343 202.916 85.6433 196.574 81.5983 186.483C78.9233 179.808 77.6873 167.485 84.8033 163C84.9353 162.916 85.1533 162.937 85.2583 163.058C88.6703 167.027 88.8043 172.986 91.7913 177.405C94.5693 181.515 98.8853 184.909 103.941 185.433C107.717 185.825 111.537 184.463 113.014 181.073C113.813 179.239 113.722 178.244 113.422 176.982L113.149 175.885C112.203 172.044 111.779 169.119 113.944 165.352Z" transform="translate(52.99948 55.99989)" fill="#fbf2c4" fill-rule="evenodd" stroke="none"></path></g></g><g transform="translate(123 338)"><g><path d="M276.67 82.0231C278.737 79.5551 285.109 75.4151 286.653 74.1321C289.701 71.6021 295.493 72.9491 295.189 77.6681L293.255 107.666C293.056 110.762 290.518 130.65 289.843 135.839C287.206 156.112 281.179 175.773 268.552 191.974C261.502 201.014 252.892 207.844 243.322 212.814C236.572 217.734 229.132 221.684 221.262 224.514C205.252 230.274 187.822 230.094 171.242 227.184C156.182 224.544 141.182 219.524 127.172 213.174C111.042 208.294 95.3216 202.064 80.3216 195.054C64.5716 187.694 47.6116 179.464 35.1316 167.074C23.1416 155.184 16.8616 139.054 12.8816 122.944C12.2716 120.484 11.7016 118.004 11.1716 115.514C10.6516 114.194 10.2216 112.774 9.88161 111.184C8.79161 106.134 7.80161 101.064 6.91161 95.9841C5.14161 85.9341 3.72161 75.8141 2.65161 65.6641C1.57161 55.3941 0.891612 45.0841 0.591612 34.7641C0.54156 33.006 0.435836 31.1613 0.327412 29.2696C-0.0840528 22.0905 -0.534392 14.2331 1.87161 7.85407C3.66161 3.11407 7.66161 0.104072 11.9916 0.00407165C14.3816 -0.0659284 16.8816 0.764072 19.1616 2.69407C24.6516 7.33407 47.3816 60.2241 56.0016 71.9741C64.8316 84.0041 74.8116 95.2941 85.8616 105.294C86.0516 105.404 86.2416 105.524 86.4216 105.644C101.412 101.864 114.892 94.4641 125.852 82.8841C135.512 72.6741 143.392 60.8341 154.822 52.4041C160.422 48.2741 166.902 45.3441 173.822 44.3941C178.977 43.691 184.101 44.1701 189.228 44.6497C193.509 45.0501 197.793 45.4507 202.102 45.1641C203.708 45.0594 205.295 44.9163 206.868 44.7745C214.012 44.1306 220.86 43.5134 227.802 46.6441C234.992 49.8741 240.502 55.7041 245.882 61.2741C253.452 69.1271 261.935 75.3901 271.464 79.8221C272.829 79.7921 274.168 80.2821 275.077 81.3981C275.605 81.6121 276.136 81.8201 276.67 82.0231ZM238.77 124.972C242.214 126.253 245.642 127.582 249.132 128.724C251.352 129.444 253.632 130.134 255.932 130.624C260.962 125.204 264.642 118.694 267.552 111.724C263.042 111.484 258.412 109.854 254.552 108.194C247.092 104.974 240.342 100.194 232.672 97.4641C216.512 91.7141 199.052 94.2441 182.962 98.8741C165.682 103.834 149.342 111.574 132.002 116.324C126.355 117.876 120.113 119.38 113.738 120.285C114.786 121.52 115.761 122.806 116.701 124.129C125.511 129.063 134.585 133.548 144.232 137.184C145.572 137.684 146.922 138.184 148.272 138.654C150.474 138.04 152.652 137.308 154.812 136.502C163.907 132.197 172.359 125.628 181.423 121.972C199.89 114.523 221.161 116.127 238.77 124.972Z" transform="translate(-0.9999123 -17.00057)" fill="#fbf2c4" fill-rule="evenodd" stroke="none"></path></g></g><g transform="translate(47 241)"><g><path d="M355.09 63.4319C352.262 71.1279 347.958 79.1399 342.695 85.6169C321.401 103.649 300.71 93.6649 290.204 69.2259C286.212 51.9549 296.811 33.3509 308.042 20.6459C324.262 4.38889 350.733 12.9209 358.191 32.2469C358.644 34.7509 358.918 37.2489 359.049 39.7389C358.894 47.8299 357.919 54.7449 355.09 62.4319M150.41 47.9109C178.462 14.5439 230.942 12.7599 229.603 64.1149C223.577 129.119 122.106 113.164 150.41 47.9109ZM363.913 20.0759C362.93 18.4109 361.839 16.7999 360.648 15.2589C360.208 14.9969 359.955 12.6729 358.337 12.5009C336.71 -11.3581 298.717 2.17889 284.989 25.9529C282.482 28.9589 280.437 32.4779 278.929 36.1959C265.403 33.7149 249.634 34.1969 237.054 39.3059C224.58 6.73389 186.815 3.82589 161.928 17.7429C146.449 25.3559 136.412 41.2989 121.358 50.0569C85.9688 52.6039 47.9878 44.6749 13.2378 53.5519C-14.1682 59.2499 8.74178 73.1269 13.3378 63.8659C46.1008 54.1859 84.9158 62.3659 118.933 60.1849C122.47 66.1679 129.253 71.0639 136.013 70.8549C143.314 135.576 237.698 124.844 240.954 67.3109C244.647 61.4719 249.24 55.8839 255.814 52.2459C258.331 51.7249 260.762 51.0479 262.984 49.9999C266.782 49.4639 272.634 51.0739 276.128 54.2359C288.097 126.052 357.052 117.688 369.375 54.7739C369.62 54.5239 370.305 53.5859 370.831 52.0809C375.049 46.5039 385.375 44.4309 383.725 35.0159C382.256 25.5989 370.364 25.7109 363.913 20.0759Z" transform="translate(11.99972 10.99992)" fill="#fbf2c4" stroke="none"></path></g></g></g></g></svg>