<?xml version="1.0" standalone="no"?>
<svg viewBox="-395 -150 1500 1500" style="width: 487.5px; height: 487.5px; justify-content: center; align-self: center; transform: scale(1, 1);" xmlns="http://www.w3.org/2000/svg"><g transform="rotate(0 348.4207305908203 590.0001678466797)"><g transform="translate(0 459)"><path d="M775.898 68.6694C760.379 7.48967 686.815 -3.14589 633.159 0.69637C616.289 5.1391 615.152 15.9766 613.771 29.1472C613.296 33.6753 612.793 38.4792 611.611 43.3938C606.99 62.6031 592.008 83.5037 562.905 101.07C563.776 99.044 536.193 102.393 535.209 115.513C488.786 133.715 437.665 134.573 392.365 156.383C348.063 179.097 310.074 212.153 269.202 240.28L110.794 354.916C106.996 357.665 105.078 362.026 105.219 366.175C67.3151 394.016 37.0616 431.092 10.3302 469.537L8.62864 471.992C3.64464 476.016 -1.54236 484.474 0.428643 490.376C1.50936 510.007 16.2761 525.544 27.4013 540.747L28.1456 541.772C63.8916 590.33 103.137 636.296 145.296 679.388C166.408 699.191 185.018 726.529 215.901 729.888C247.61 732.377 279.675 728.252 311.141 723.669L320.887 722.239C329.067 720.871 331.382 709.123 325.73 703.869C259.354 642.286 199.515 573.312 148.385 498.559C148.907 498.186 149.485 497.769 149.998 497.398L151.306 496.446C158.396 491.39 171.217 482.087 178.834 476.629L182.374 474.101C189.088 469.335 196.678 464.84 201.792 458.32C223.742 424.846 169.874 375.032 141.541 361.985C214.758 309.422 287.197 255.743 360.676 203.555C378.695 190.917 397.499 178.829 418.236 171.169C456.471 157.102 498.067 154.155 536.279 140.238C554.417 266.455 907.254 244.699 806.126 115.263C790.194 100.703 780.711 90.9319 775.898 68.6694ZM914.779 320.144C914.053 315.54 907.996 310.788 903.28 311.376C846.677 318.456 789.395 318.748 732.723 312.249C724.595 311.316 719.649 320.604 721.203 327.391L728.252 358.163L728.473 359.148C730.288 367.397 731.444 376.651 734.581 384.652C733.69 392.63 731.782 400.922 729.852 409.308C724.602 432.131 719.19 455.654 733.653 475.465C764.568 506.775 816.832 523.336 858.857 506.59C871.957 501.009 883.368 491.829 890.911 479.649C898.303 467.714 901.615 453.829 904.578 440.213L906.057 433.377C914.093 396.043 920.795 358.31 914.779 320.144ZM1024.89 412.266C1073.87 338.565 1120.56 420.109 1140.95 469.256C1163.72 532.805 1120.43 610.17 1088.4 667.419C1086.53 670.761 1084.7 674.034 1082.92 677.231C1071.05 693.333 1055.43 727.297 1034.51 729.759C981.787 729.544 928.994 725.832 876.242 724.726C842.18 716.276 889.97 665.089 922.982 683.785C932.984 687.527 937.981 698.883 947.734 702.526C950.965 703.215 951.461 701.968 952.611 699.076C952.726 698.787 952.847 698.482 952.978 698.161L953.183 697.666C955.76 691.543 958.259 685.386 960.797 679.247C982.274 626.357 1004.98 573.934 1027.56 521.533C1032.38 510.156 1025.61 500.783 1016.82 494.011C1014.98 492.5 1011.5 490.394 1007.95 488.251C998.481 482.539 988.584 476.565 1008.42 480.895C997.914 456.522 1010.53 431.783 1024.89 412.266Z" transform="translate(-224 -30.00002)" fill="#FFFFFF" fill-rule="evenodd" stroke="none"></path><path d="M630.857 0.303104C630.797 -0.115896 630.137 -0.0858957 630.047 0.303104C626.227 16.9141 620.537 32.8141 609.667 46.2741C604.407 52.7741 598.157 58.6751 591.097 63.1641C584.027 67.6641 576.557 68.9341 568.987 71.5941C567.537 70.3941 565.907 69.4441 564.347 68.7941C560.567 67.2341 555.747 67.7441 551.907 69.2041C536.427 69.5641 520.887 71.9841 505.707 74.8031C488.817 77.9341 471.997 81.3941 455.247 85.1941C438.517 88.9941 421.877 93.2551 405.327 97.7841L404.345 98.051C389.59 102.037 373.489 105.291 360.097 112.814C354.405 116.011 349.294 120.157 344.288 124.349L334.52 132.55L314.546 149.359C303.305 158.809 292.034 168.232 280.867 177.774C254.087 200.664 227.367 223.614 200.497 246.404C185.537 259.094 170.577 271.784 155.617 284.464C148.267 290.704 140.917 296.944 133.567 303.175C125.747 309.803 117.437 316.133 110.227 323.414C107.587 326.074 108.347 330.264 111.357 332.224C112.347 332.864 113.317 333.524 114.287 334.214C103.507 341.633 93.427 349.644 83.757 358.734C71.447 370.284 59.387 382.184 47.857 394.524C36.367 406.824 24.977 419.244 13.787 431.814L13.3302 432.329C8.4623 437.828 3.78308 443.674 1.41702 450.714C-1.16298 458.374 -0.00273869 466.244 3.14702 473.514C9.15701 487.335 18.747 500.224 27.037 512.755C35.587 525.664 44.507 538.294 53.817 550.664C72.917 576.014 93.297 600.714 115.787 623.144C140.287 647.585 166.917 670.344 195.907 689.294C202.797 693.794 209.227 682.734 202.347 678.284C152.707 646.184 111.107 602.425 74.637 556.255C56.427 533.204 39.427 509.114 23.557 484.394L23.1705 483.795C19.2835 477.794 14.7738 471.632 12.877 464.684C10.9112 457.476 13.9226 451.197 18.1531 445.523L18.637 444.883C28.327 432.244 39.747 420.633 50.407 408.803L55.5238 403.128C65.7599 391.776 76.0284 380.441 86.657 369.444C93.057 362.835 99.487 356.224 106.007 349.744C109.319 346.448 112.452 342.966 115.554 339.458L117.877 336.824C125.298 342.437 132.25 348.987 138.937 355.444L143.357 359.724C153.197 369.264 162.497 379.335 171.257 389.883C182.907 403.904 193.347 418.744 202.867 434.184C202.487 434.474 202.117 434.764 201.737 435.064C201.407 435.324 201.117 435.624 200.877 435.944C192.906 440.044 185.552 445.369 178.237 450.557L176.147 452.034C170.297 456.144 164.457 460.274 158.727 464.553C158.521 464.707 158.314 464.862 158.105 465.019C153.516 468.445 148.28 472.355 149.887 478.734C150.577 481.484 154.037 483.794 156.857 482.694C158.507 482.053 159.637 481.204 160.637 480.194C163.239 486.898 167.53 493.439 171.565 499.261L172.527 500.644C177.127 507.244 181.932 513.697 186.762 520.13L190.387 524.954C201.067 539.175 211.967 553.303 223.197 567.094C245.387 594.344 269.087 620.494 295.427 643.803C310.457 657.114 326.107 669.764 342.647 681.154C351.387 687.184 359.777 672.814 350.977 666.914C295.299 629.589 251.853 576.964 208.846 526.18L202.765 519.009C196.482 511.616 190.148 504.251 183.587 497.114C177.477 490.464 170.657 482.814 162.867 477.774C162.904 477.727 162.944 477.68 162.986 477.633L163.247 477.344C165.047 475.374 167.297 473.744 169.337 472.034C174.477 467.734 179.657 463.474 184.857 459.234C189.647 455.335 194.517 451.484 199.047 447.284C202.777 452.284 208.077 456.374 213.347 459.694L213.857 460.018C214.197 460.231 214.537 460.438 214.877 460.644C216.557 461.654 218.267 461.874 219.807 461.514L219.817 461.514L220.036 461.59C221.723 462.126 223.626 461.552 224.987 460.344C239.957 456.024 254.027 447.714 268.037 441.064C283.387 433.784 298.917 426.844 314.527 420.154C343.387 407.784 373.007 396.255 403.087 387.064C414.297 459.604 417.137 532.505 412.277 605.784C410.877 626.724 409.507 647.675 407.067 668.524C405.877 669.724 404.737 670.954 403.907 672.335C401.037 677.124 402.097 683.064 406.857 686.303C411.469 689.445 418.01 689.437 423.84 689.43C425.305 689.428 426.724 689.426 428.057 689.474L431.4 689.585C436.973 689.749 442.555 689.816 448.134 689.871L461.335 689.994C489.538 690.21 517.747 689.9 545.95 689.502L581.316 688.99C643.898 688.097 706.521 687.466 769.047 690.755C788.377 691.764 807.647 693.374 826.927 695.074C846.017 696.755 865.207 697.954 884.277 695.414C890.627 694.564 892.697 689.133 891.177 684.974C897.527 686.774 904.517 686.744 911.027 687.244L912.53 687.356C919.532 687.855 926.358 688 933.237 686.133C935.107 685.624 935.797 682.574 933.817 681.684C924.397 677.444 914.297 677.164 904.167 676.324L901.53 676.108C899.77 675.956 898.01 675.767 896.277 675.414C896.02 675.363 895.345 675.119 894.522 674.807L892.537 674.044C892.827 673.694 893.117 673.335 893.397 673.053C895.027 671.434 896.737 669.944 898.627 668.624C907.727 662.294 918.237 660.264 928.347 661.925C929.617 663.654 931.377 665.014 933.417 665.574C935.297 666.094 937.337 665.904 939.207 665.194C942.767 666.784 946.177 668.854 949.347 671.374C949.847 671.774 950.687 671.274 950.297 670.633C948.367 667.474 946.067 664.714 943.487 662.364C945.647 660.074 946.687 656.904 945.347 653.644C943.587 649.364 941.057 643.883 936.657 641.714C936.777 640.449 936.673 639.115 936.514 637.736L936.387 636.694C935.837 632.194 935.367 627.684 934.917 623.164C934.007 614.144 933.347 605.104 932.947 596.053C932.137 577.934 932.447 559.803 933.137 541.694C934.547 504.974 938.957 468.414 944.417 432.104C944.807 429.524 945.197 426.934 945.577 424.354C945.617 425.085 945.827 425.835 946.167 426.633C947.907 430.764 951.737 434.844 954.597 438.284C960.284 445.095 967.132 450.305 974.196 455.462L978.048 458.264C981.316 460.648 984.514 463.145 987.277 466.104C990.087 469.114 991.407 472.744 993.627 476.104C996.097 479.864 999.727 482.414 1004.35 482.294C1008.01 482.196 1011.58 480.272 1014.9 478.245L1018.01 476.324C1019.64 477.814 1021.95 478.494 1024.74 477.553C1026.34 477.014 1027.94 476.464 1029.54 475.894C1030.77 478.784 1034.59 483.61 1035.51 484.589L1035.63 484.704C1037.97 486.914 1040.63 488.784 1043.47 490.324C1043.26 490.344 1043.05 490.425 1042.9 490.585C1031.33 502.216 1024.76 519.093 1018.4 534.102L1017.73 535.675C1011.6 550.024 1005.87 564.548 1000.2 579.085L994.427 593.922C988.6 608.889 982.802 623.87 977.567 639.053C974.557 647.794 971.657 656.564 968.697 665.324C965.787 673.954 961.977 682.755 959.957 691.624C958.417 698.383 968.017 703.094 971.537 696.514C975.817 688.524 978.687 679.464 982.137 671.074C985.667 662.484 989.207 653.883 992.727 645.284C998.423 631.349 1003.58 617.197 1008.67 603.026L1013.62 589.212C1019.36 573.204 1025.08 557.176 1030.34 540.994C1033.1 532.494 1035.78 523.994 1038.44 515.474L1039.74 511.302C1041.81 504.718 1043.76 498.204 1044.66 491.314C1044.68 491.175 1044.66 491.044 1044.62 490.934C1045.87 491.564 1047.16 492.133 1048.46 492.644C1053.73 494.704 1059.26 495.744 1064.87 496.364L1065.23 496.404C1065.71 496.459 1066.2 496.516 1066.69 496.574C1072.29 497.235 1078.08 497.919 1082.65 494.194C1084.78 492.464 1084.72 488.303 1082.65 486.574C1078.84 483.378 1073.93 483.408 1069.06 483.437C1067.33 483.448 1065.61 483.458 1063.94 483.324C1057.97 482.835 1052.08 481.614 1046.56 479.255C1042.97 477.714 1040.14 475.294 1037.13 473.053C1061.78 463.374 1085.08 449.314 1099.87 426.734C1109.26 412.373 1112.33 396.288 1114.11 379.541L1114.29 377.864C1115.22 368.734 1115.35 360.335 1110.58 352.154C1105.6 343.594 1099.34 335.585 1093.79 327.374C1070.84 293.454 1048.02 259.454 1025.2 225.454C1013.9 208.604 1003.13 191.364 991.697 174.604C986.697 167.274 981.377 159.454 974.527 153.734C967.797 148.114 960.127 144.044 952.387 140.014L948.43 137.961C929.958 128.39 911.402 119.002 892.567 110.154C888.787 108.374 884.767 106.364 880.577 104.364C873.677 100.194 865.347 97.3841 857.977 94.3241L856.488 93.7091C849.03 90.6444 841.401 87.7435 833.667 85.4841C827.897 83.7941 821.007 84.4841 818.037 89.6141C812.997 85.9341 808.587 81.5531 804.517 76.7841C799.587 71.0241 795.477 64.4441 792.367 57.5241C790.757 53.9541 789.537 50.2041 788.457 46.4341C787.527 43.1941 787.237 39.7741 785.727 36.7441C785.387 36.0641 784.187 36.0141 783.867 36.7441C781.066 43.0797 782.815 51.9512 784.555 58.6576L784.887 59.9141C787.137 68.3241 791.037 76.2041 796.197 83.2041C801.147 89.9251 807.447 95.6751 814.317 100.384C811.027 110.484 808.317 120.734 804.357 130.664C800.327 140.794 795.867 151.585 787.767 159.175C773.757 172.309 750.71 172.376 731.85 172.43C730.418 172.434 729.009 172.438 727.631 172.448L724.491 172.477C680.039 172.835 632.706 165.357 598.997 133.894C590.567 126.024 583.897 117.034 578.297 106.984C575.167 101.364 572.287 95.5941 569.077 90.0241C567.997 88.1541 566.937 86.2841 565.787 84.5051C566.067 84.6641 566.367 84.8031 566.687 84.9251C576.895 88.9119 588.007 82.9751 596.23 76.8273L596.857 76.3541C604.907 70.2141 611.737 62.5741 617.277 54.1141C627.427 38.6241 633.657 18.9251 630.857 0.303104ZM862.481 306.961C879.511 306.847 896.558 306.732 913.517 305.564C913.547 306.294 913.567 307.014 913.587 307.744C905.857 306.624 897.507 308.344 890.257 310.904C882.657 313.585 874.997 316.904 866.867 317.494C859.277 318.044 852.377 315.494 845.597 312.374L842.73 311.059C839.859 309.748 836.98 308.46 834.077 307.335C834.197 307.335 834.317 307.324 834.437 307.324L837.474 307.253C845.797 307.073 854.137 307.017 862.481 306.961ZM799.497 308.534C797.627 308.604 795.757 308.684 793.887 308.764C786.967 309.064 780.047 309.404 773.127 309.794C771.788 309.867 770.363 310.034 768.902 310.205C765.137 310.646 761.133 311.116 757.747 310.064C757.627 310.544 757.467 311.005 757.257 311.454C757.967 314.994 758.407 318.654 758.677 322.354C763.017 322.824 767.427 322.664 771.707 321.774C781.977 319.644 790.317 313.164 799.497 308.534ZM874.797 324.534C887.467 321.244 900.447 312.614 913.717 312.154C913.977 320.794 914.167 329.434 914.217 338.053C909.687 334.434 903.067 333.104 897.067 334.154C891.351 335.149 885.85 338.302 880.34 341.46C872.067 346.201 863.773 350.955 854.697 348.434C847.957 346.553 842.387 341.704 836.627 337.954C830.867 334.204 824.277 331.133 817.307 330.854C810.827 330.585 805.047 333.394 800.617 338.014C795.797 343.044 792.497 349.154 785.477 351.434C778.211 353.785 771.93 351.281 765.836 347.471L765.147 347.034C763.227 345.794 761.207 344.434 759.107 343.234C759.104 342.116 759.105 340.991 759.105 339.857L759.105 339.848C759.106 337.022 759.107 334.165 759.057 331.303C771.839 332.367 782.987 328.1 793.935 321.867L795.087 321.204C801.097 317.704 807.277 313.835 814.267 312.694C821.437 311.534 828.387 314.085 834.857 316.925L836.484 317.642C849.092 323.2 860.644 328.207 874.797 324.534ZM827.757 343.574C823.987 341.585 819.397 339.734 815.037 340.314C810.877 340.863 808.105 343.685 805.543 346.701L804.156 348.353C799.573 353.774 795.062 358.333 787.997 360.564C780.677 362.864 772.917 361.964 766.107 358.594C763.687 357.394 761.437 355.904 759.177 354.434L759.297 370.383C763.817 372.633 768.417 374.664 773.467 375.894C782.787 378.164 790.707 376.484 798.677 371.344L799.514 370.799C805.517 366.857 811.672 362.164 819.087 361.724C826.323 361.291 831.754 365.303 836.519 370.213L837.077 370.794C843.087 377.133 849.157 380.224 858.097 379.494C866.764 378.786 874.876 374.959 882.816 371.662L883.537 371.364C890.797 368.383 899.167 365.314 907.137 366.454C909.047 366.724 911.517 367.314 913.717 368.344C914.037 360.883 914.187 353.414 914.217 345.934C909.687 342.005 902.637 341.354 896.967 342.964C888.087 345.484 880.817 351.984 872.337 355.514C864.817 358.644 856.977 359.344 849.307 356.383C841.387 353.324 835.177 347.494 827.757 343.574ZM812.507 374.074C815.287 372.524 818.517 371.014 821.787 371.644C825.171 372.301 827.615 374.975 829.9 377.406L830.657 378.204C835.867 383.604 841.527 387.544 849.067 388.755C857.207 390.064 865.657 388.544 873.287 385.624C881.337 382.553 888.907 378.274 897.037 375.404C900.757 374.094 904.947 372.835 908.937 372.854C910.607 372.864 912.057 373.244 913.457 373.764C913.067 381.335 912.487 388.894 911.687 396.454C901.513 391.127 888.283 396.456 878.091 401.138L876.217 402.005C868.167 405.744 860.337 408.564 851.327 407.734C842.806 406.95 836.201 402.934 829.39 398.313L827.597 397.089C821.639 393.051 814.67 389.498 807.277 391.324C800.047 393.104 794.517 398.803 787.307 400.914C780.237 402.984 772.627 403.204 765.447 401.564C763.427 401.094 761.447 400.505 759.517 399.774C759.467 393.704 759.417 387.633 759.377 381.564C769.637 385.914 780.937 388.204 791.267 385.544C799.297 383.474 805.417 378.005 812.507 374.074ZM1114.2 379.624C1114.03 378.865 1114.94 378.284 1115.53 378.855C1125.5 388.464 1132.54 400.744 1140.27 412.124C1147.63 422.964 1155.64 433.384 1161.13 445.345C1166.23 456.464 1169.52 467.744 1170.5 479.964C1171.48 492.095 1170.21 504.255 1168.07 516.204C1163.86 539.744 1154.86 562.034 1144.98 583.685C1135.37 604.732 1124.52 625.18 1113.06 645.256L1108.95 652.424C1103.94 661.15 1098.87 669.861 1093.45 678.315C1086.7 688.835 1080.54 699.695 1071.64 708.475C1065.32 714.725 1053.41 708.475 1056.29 699.544C1057.54 695.655 1058.52 691.994 1060.46 688.384C1061.93 685.634 1063.59 682.964 1065.15 680.255C1068.27 674.835 1071.36 669.395 1074.48 663.975C1081.03 652.585 1087.93 641.405 1094.42 629.975C1105.68 610.155 1116.31 589.964 1125.71 569.185L1126.81 566.732C1135.46 547.49 1143.66 527.559 1147.46 506.744C1151.46 484.815 1147.88 464.145 1140.09 443.534C1136.06 432.874 1131.53 422.454 1126.82 412.074L1125.91 410.091C1121.36 400.184 1116.54 390.33 1114.2 379.624ZM821.749 404.753L820.544 403.977C817.366 401.949 813.721 399.848 809.827 400.594C806.347 401.264 803.357 404.034 800.327 405.744C793.677 409.494 786.217 411.544 778.607 412.064C772.277 412.494 765.707 411.724 759.617 409.844L759.827 429.505C762.057 430.214 764.367 430.724 766.797 430.904C774.177 431.454 781.377 429.684 787.567 425.614L790.698 423.535C796.057 420.014 801.085 417.22 808.177 418.505C815.197 419.784 821.087 424.284 826.827 428.204L827.768 428.836C834.36 433.188 841.042 435.997 849.127 436.064C857.857 436.133 866.487 433.704 874.617 430.714C882.687 427.755 890.357 424.204 898.987 423.114C901.627 422.784 904.847 422.684 907.877 423.204C908.277 420.974 908.657 418.755 909.017 416.524C909.797 411.734 910.467 406.954 911.047 402.164C900.929 399.441 891.322 404.34 881.865 409.162C877.013 411.636 872.199 414.09 867.377 415.484C859.127 417.864 850.147 417.835 841.897 415.534C834.263 413.404 828.262 408.982 821.749 404.753ZM819.419 435.241L820.497 435.974C827.147 440.434 833.817 444.053 841.847 445.214C850.077 446.404 858.427 445.383 866.417 443.234C874.577 441.044 882.157 437.294 889.907 434.005C894.007 432.264 898.147 430.704 902.547 429.894C903.947 429.633 905.327 429.564 906.687 429.564C906.617 429.954 906.537 430.354 906.457 430.744C905.687 434.644 905.487 440.204 903.137 443.524C900.977 446.585 896.337 448.324 893.237 450.144L892.877 450.354L892.066 450.36C889.632 450.402 887.183 450.676 884.807 451.144C879.67 452.146 874.616 454.237 869.548 456.333C860.398 460.119 851.201 463.923 841.387 461.374C828.947 458.154 819.117 448.484 806.107 446.814C799.197 445.925 792.887 447.803 786.637 450.614L784.447 451.595C781.201 453.04 778.114 454.358 774.907 455.454C769.967 453.335 765.027 451.234 760.057 449.184L759.957 440.303C766.527 441.664 773.527 441.454 779.637 440.044C783.317 439.194 786.947 437.784 790.247 435.944C793.527 434.124 796.257 431.394 799.587 429.704C806.373 426.261 813.045 430.854 818.718 434.759C818.953 434.921 819.187 435.082 819.419 435.241ZM804.057 456.094C798.057 455.675 792.657 458.154 787.297 460.794C790.317 462.104 793.337 463.404 796.357 464.694L816.457 473.274C823.097 476.104 830.127 478.564 836.437 482.053C836.887 482.303 837.247 482.604 837.517 482.954C844.077 478.755 851.017 475.005 857.667 471.014C859.187 470.104 860.717 469.194 862.247 468.284C854.327 470.934 846.207 472.264 837.607 469.774C826.137 466.464 816.177 456.944 804.057 456.094Z" transform="translate(-236.9973 -6.999804)" fill="#000000" fill-rule="evenodd" stroke="none"></path></g><g transform="translate(225 0)"><g><g><path d="M345.142 90.1373C346.232 80.0123 334.379 53.0009 334.665 58.4799C315.663 29.1809 278.58 17.6589 246.585 7.98693C178.664 -14.4351 125.626 12.6439 77.9044 60.6369C49.7304 86.9539 22.9224 116.351 8.77943 152.782C-19.0436 222.28 22.6614 301.526 86.0844 334.726C91.2024 337.496 96.7794 340.126 101.653 343.472C127.871 358.619 158.658 363.859 187.873 370.452C242.529 382.945 311.172 376.991 343.382 324.955C365.229 288.025 359.425 243.256 357.715 202.272C355.146 166.363 350.637 125.783 345.142 90.1373Z" transform="translate(48.99997 119.0004)" fill="#FFFFFF" stroke="none"></path><path d="M279.593 0.314017C231.741 -2.49198 179.404 13.552 143.994 46.654C138.935 51.382 134.281 56.661 129.975 62.293C124.341 67.671 118.995 73.345 114.001 79.298C79.4814 120.439 60.4014 172.179 53.1514 224.958C49.4214 252.128 48.4714 279.579 50.1714 306.949C50.7651 316.485 51.847 326.007 52.9292 335.533C54.8544 352.479 56.7808 369.435 55.9614 386.489C55.3714 398.589 53.1914 411.009 47.2214 421.699C41.5964 431.777 32.7458 438.7 23.982 445.853L22.2314 447.288C13.3714 454.589 3.94137 463.069 0.94137 474.628C-2.31863 487.169 3.11137 499.809 13.7814 506.849C24.4314 513.878 38.2714 514.458 49.9014 509.759C56.6644 507.023 62.6164 503.035 68.1324 498.31C73.9294 502.148 81.3714 504.086 88.4824 503.662C94.8374 503.283 102.145 501.619 108.882 498.687C114.561 502.892 122.173 504.356 129.127 504.128C137.722 503.847 147.326 501.439 155.076 496.652C158.604 497.621 162.356 498.047 166.171 497.859C184.451 496.949 196.801 482.819 201.031 465.759C205.621 447.208 202.521 426.798 197.561 408.628C192.551 390.259 184.401 372.679 173.751 356.899C171.871 354.119 169.931 351.399 167.901 348.729C165.701 344.089 163.29 339.538 160.571 335.248C158.58 332.119 156.381 328.829 153.85 325.849C154.621 324.919 155.341 323.878 156.1 322.788C157.641 320.579 156.061 317.288 153.611 316.659C151.391 316.099 149.491 315.038 147.181 314.769C144.931 314.498 142.58 314.619 140.33 314.458C136.401 314.189 132.611 313.069 129.161 311.169C128.901 311.029 128.641 310.878 128.391 310.718C128.387 310.723 128.385 310.725 128.382 310.725C128.379 310.725 128.377 310.72 128.371 310.708C128.1 310.559 127.821 310.388 127.561 310.229C120.211 305.569 115.79 298.138 114.151 289.538C112.361 280.128 113.951 269.649 117.911 260.958C120.661 254.929 126.191 247.038 132.821 245.019C134.475 245.595 136.296 246.599 138.179 247.636C143.265 250.44 148.799 253.49 152.681 249.009C154.33 247.109 154.661 244.138 152.681 242.269C151.711 241.359 150.471 240.538 149.111 239.809C149.821 238.798 150.521 237.788 151.211 236.779C152.271 235.449 153.271 234.079 154.161 232.659C154.58 231.989 155.001 231.319 155.441 230.649L155.491 230.559L158.694 225.867C166.152 214.908 173.5 203.874 180.771 192.788C186.29 188.859 191.731 184.809 197.1 180.699C223.481 160.538 248.1 137.929 269.571 112.569C276.451 104.439 283.031 96.038 289.241 87.378C311.771 92.439 334.83 95.679 357.031 101.979C371.531 106.099 385.911 111.119 399.04 118.628C405.391 122.259 411.401 126.429 416.661 131.529C419.131 133.929 421.441 136.489 423.481 139.259C425.901 142.548 427.631 143.998 431.361 145.089C431.671 145.809 432.121 146.519 432.701 147.189C433.441 148.038 434.261 148.679 435.141 149.138C434.951 151.309 434.691 153.479 434.641 155.699C434.581 158.339 434.583 160.988 434.585 163.634C434.586 164.947 434.587 166.259 434.58 167.569C434.572 169.252 434.559 170.936 434.547 172.62C434.5 178.853 434.454 185.092 434.611 191.319C434.883 202.155 435.537 213.001 436.253 223.831L437.121 236.819C439.04 265.729 442.441 294.638 443.421 323.589C444.231 347.829 442.031 374.859 425.421 394.019C417.881 402.729 408.531 409.399 398.241 414.498C387.521 419.798 375.33 424.079 363.631 426.429C347.958 429.589 331.455 429.057 315.523 428.185L313.251 428.059C305.35 427.619 297.251 427.489 289.431 426.279C283.451 425.359 277.781 422.798 272.011 421.169C270.491 420.739 268.83 421.949 268.871 423.559C269.156 436.147 284.134 437.868 294.29 438.599L297.99 438.85C313.684 439.885 329.447 440.688 345.181 440.239C346.361 440.208 347.551 440.159 348.731 440.109C343.231 450.138 344.1 462.548 349.691 472.659C351.231 475.439 353.141 477.919 355.35 480.089C362.131 486.788 371.651 490.569 381.211 491.029C381.461 491.138 381.721 491.248 381.981 491.349L382.561 491.583C390.871 494.918 399.472 497.454 408.531 496.378C414.54 495.669 419.961 493.042 424.164 489.238C429.623 490.951 435.522 490.748 441.033 489.144C447.354 492.078 454.15 493.591 460.751 489.748C467.441 485.859 471.401 477.779 471.151 470.149C470.868 461.706 465.091 455.544 458.017 451.767C456.926 448.075 455.208 444.456 453.432 440.889L451.792 437.61L449.691 432.609C448.892 430.721 448.084 428.837 447.278 426.954C445.555 422.163 443.936 417.33 442.693 412.394C441.795 408.827 441.393 405.597 440.2 402.728C452.719 387.163 459.169 368.03 460.54 347.059C461.451 333.079 460.401 319.038 459.061 305.119L458.283 297.033C456.978 283.556 455.635 270.076 454.201 256.609C452.201 237.779 449.931 218.979 447.421 200.218C446.221 191.208 444.721 182.279 443.091 173.339C442.818 171.839 442.54 170.339 442.26 168.839L440.571 159.839C439.951 156.538 438.981 153.259 438.171 149.979C441.901 150.279 445.841 148.048 447.721 144.509C450.176 139.89 448.828 133.639 447.685 128.344C447.507 127.52 447.334 126.719 447.182 125.951L446.824 124.08C444.601 112.713 440.676 101.68 435.701 91.218C425.281 69.298 409.001 50.819 387.941 38.619C383.736 36.181 379.395 33.939 374.955 31.867C368.373 27.058 361.235 22.974 353.91 19.485C330.488 8.32802 305.51 1.83402 279.593 0.314017ZM156.411 275.759C151.631 269.659 142.011 263.878 133.991 266.309C128.511 267.958 123.321 273.479 123.711 279.399C123.771 280.288 125.191 280.619 125.371 279.628C126.421 273.779 132.381 273.179 136.831 275.579C140.931 277.788 143.271 282.569 146.141 286.019C148.671 289.048 153.791 288.579 156.411 286.019C159.491 283.009 158.811 278.819 156.411 275.759ZM603.171 348.009C603.361 348.019 603.541 348.029 603.711 348.099C603.825 348.147 603.921 348.224 604.01 348.308L604.851 349.149C605.151 349.449 605.131 349.909 604.851 350.209C604.605 350.482 604.162 350.49 603.872 350.279L603.791 350.209L602.92 349.337C602.824 349.234 602.743 349.122 602.701 348.979C602.661 348.839 602.661 348.679 602.651 348.529C602.641 348.259 602.901 348.009 603.171 348.009Z" transform="translate(-41.99967 59.99968)" fill="#000000" fill-rule="evenodd" stroke="none"></path></g></g><g transform="translate(159 186)"><g><path d="M175.373 49.5872C175.699 49.4437 175.991 49.2049 176.203 48.8583C178.978 44.3099 179.267 38.8813 178.039 33.5637C176.563 27.172 172.899 20.9588 168.944 16.7559C163.959 11.4582 157.895 7.75374 151.246 4.94731C150.762 4.74287 150.267 4.53098 149.763 4.31514C142.964 1.40541 134.597 -2.01031 127.865 1.47064C125.161 2.86951 123.673 5.20381 123.256 7.7496C122.814 10.4534 123.597 13.4099 125.462 15.7216C128.557 19.5594 133.339 20.3533 138.087 21.0465C139.602 21.2677 141.106 21.486 142.53 21.8229C147.429 22.9821 152.604 24.4361 157.104 26.7244C166.253 31.3762 170.54 38.5898 172.747 48.2853C172.837 48.6781 173.037 48.9988 173.3 49.2406C173.575 49.4928 173.921 49.6579 174.285 49.7192C174.651 49.7808 175.032 49.7375 175.373 49.5872ZM58.3942 19.1934C55.0693 22.4329 51.1339 22.9347 47.1526 23.381C44.9405 23.6313 43.1746 23.8331 41.4369 24.2252C36.6605 25.3034 31.9393 26.9272 27.6319 29.2659C23.1292 31.7106 18.2224 34.659 14.6922 38.4361C13.8528 39.3349 13.0615 40.278 12.2691 41.2232C11.5465 42.0851 10.8505 42.9149 10.1169 43.7149C9.27449 44.6339 8.47449 45.597 7.67875 46.5576C7.1867 47.3681 7.0895 47.5675 6.99041 47.775C6.8413 48.0869 6.66786 48.4359 6.46976 48.8103C6.19845 49.323 5.88066 49.8843 5.54784 50.3932C4.9941 51.3234 4.69697 51.5796 4.44022 51.6942C4.01419 51.8839 3.61015 51.9774 3.21817 51.9268C2.85064 51.8793 2.50438 51.7028 2.16244 51.4138C0.455387 49.9715 -0.0480658 47.6046 0.00353523 45.092C0.0818393 41.2793 1.48813 37.0578 2.78452 34.4628C5.79888 28.4331 9.97938 22.1649 15.0062 17.6646C20.7422 12.5276 27.0177 8.63869 34.2256 5.95894C38.705 4.29304 43.8913 2.76391 48.7713 2.95706C52.284 3.09609 55.6373 4.14026 58.4066 6.74782C60.1072 8.34853 60.9235 10.6254 60.9235 12.9006C60.9235 15.2211 60.0757 17.5554 58.3942 19.1934ZM164.634 78.3299C166.478 78.8824 167.779 78.6212 169.441 77.7551C170.719 77.0896 171.589 76.0387 172.088 74.8117C172.599 73.5559 172.706 72.1077 172.454 70.7659C171.405 65.1948 168.042 60.2513 163.503 57.0672C159.091 53.9728 153.589 52.5435 148.048 53.7341C144.003 54.6036 138.007 58.4424 134.85 63.1243C133.504 65.1203 132.671 67.2595 132.581 69.3723C132.495 71.387 133.008 73.4183 135.676 76.096C135.935 76.177 136.208 76.2208 136.477 76.2208C137.138 76.2208 137.821 75.9439 138.274 75.5441C139.469 74.4935 140.311 73.1636 141.178 71.7329C141.641 70.9679 142.102 70.1976 142.69 69.5195C144.449 67.4927 147.002 65.7736 149.683 65.3262C152.167 64.911 154.406 65.6469 156.181 67.0355C158.256 68.6601 159.713 71.1522 160.252 73.8146C160.472 74.8933 161.036 75.8657 161.818 76.6477C162.607 77.4367 163.615 78.0237 164.634 78.3299ZM46.1749 69.1109C43.7479 67.5587 40.8928 67.0259 37.7287 68.4655C35.256 69.5899 30.9192 73.3385 27.9011 78.2662C25.8363 81.6374 24.3721 85.5922 24.6769 89.7117C24.7477 90.6684 24.3942 91.3738 23.8366 91.8954C23.3962 92.3073 22.7601 92.61 22.013 92.7047C21.3786 92.785 20.6686 92.7125 20.0913 92.5324C18.9931 92.1896 18.4119 91.4772 18.1929 90.8957C16.0797 85.2836 16.9901 79.0208 19.3585 73.3707C22.5547 65.7456 28.3592 59.3585 32.1622 57.2993C38.6698 53.7742 46.347 53.612 52.8639 57.2031C58.4114 60.2596 61.8802 65.1942 65.3301 70.2242C66.0635 71.2934 66.7914 72.3548 67.5436 73.3976C69.0513 75.487 69.2013 77.5593 68.6175 79.3363C67.9707 81.3049 66.3215 82.9663 64.2592 83.8357C62.353 84.6393 60.1407 84.7524 58.1831 83.9268C56.5293 83.2293 55.0117 81.8695 54.0513 79.5625C52.434 75.6771 49.7393 71.3904 46.1749 69.1109ZM127.748 115.98C135.872 104.601 124.366 93.898 116.814 89.3079C114.836 87.8879 116.406 83.1842 120.634 83.9112C159.031 90.5082 139.136 156.649 90.112 120.354C84.2754 115.645 91.3434 105.275 97.6342 109.307C97.9532 109.552 98.2876 109.81 98.6364 110.08C105.704 115.544 118.636 125.542 127.748 115.98ZM117.042 185.1C109.675 187.233 101.768 187.424 94.2589 185.221C87.4481 183.222 80.4549 178.823 75.4423 173.003C70.9894 167.832 68.1055 161.549 68.2187 154.842C68.2316 154.076 68.5055 153.436 68.9268 152.94C69.3804 152.406 70.014 152.039 70.6926 151.88C71.3906 151.716 72.1285 151.774 72.7568 152.059C73.3256 152.318 73.8129 152.757 74.1176 153.398C74.8879 154.41 75.6553 155.407 76.4257 156.376C82.6196 164.024 88.618 169.74 97.9319 171.79C102.985 172.903 108.032 172.409 112.663 170.712C117.62 168.895 122.102 165.7 125.613 161.612C127.2 159.765 129.074 159.011 130.905 158.998C132.982 158.983 135.034 159.948 136.579 161.49C138.099 163.006 139.116 165.065 139.209 167.219C139.29 169.11 138.673 171.085 137.032 172.848C131.626 178.652 124.621 182.904 117.042 185.1Z" transform="translate(54.00004 55.05923)" fill="#000000" fill-rule="evenodd" stroke="none"></path></g></g><g transform="translate(123 338)"></g><g transform="translate(47 241)"><g><path d="M375.513 33.9959C378.273 31.6829 383.089 31.1349 386.423 31.1279C394.028 32.5829 390.88 44.1729 376.385 36.9629C398.166 128.052 258.709 131.937 282.237 45.3469C268.157 41.9599 253.29 41.6839 240.365 48.1139C251.522 87.8139 214.401 125.982 171.734 116.181C144.179 109.783 125.789 88.4229 134.308 57.0269C128.899 58.7229 118.76 57.3109 115.622 53.0899C104.775 52.1634 93.9913 50.8415 83.2204 49.5212C59.091 46.5633 35.0273 43.6135 10.4674 45.1359C7.12749 45.5983 7.31436 47.952 7.50111 50.304C7.68714 52.6469 7.87304 54.9883 4.57241 55.4569C-3.01759 54.7649 -0.0355915 41.9389 5.39841 39.8539C13.0234 34.3889 78.5984 39.8119 116.105 49.6479C121.083 46.3825 128.583 47.3802 134.493 48.1664C135.445 48.2929 136.355 48.414 137.206 48.5109C144.594 30.0029 168.272 6.93191 192.028 10.8229C213.793 12.0919 232.079 20.6889 239.509 45.2399C250.854 34.9489 271.426 31.6259 284.509 39.4079C291.765 23.0939 304.532 10.8229 321.737 5.28991C343.585 -10.2001 368.707 11.0429 375.513 33.9959ZM358.311 87.4579C346.17 100.003 325.902 103.603 309.749 96.8749C268.273 79.5459 288.574 25.4959 320.561 10.9809C324.557 9.98491 329.894 7.62191 334.761 7.08591C334.928 7.0043 335.168 7.04274 335.465 7.09029C335.954 7.1686 336.598 7.27161 337.32 6.90391C372.591 10.8419 380.623 65.5939 358.311 87.4579ZM164.916 105.906C185.6 114.302 210.916 108.73 224.533 90.6689C249.948 57.3679 225.561 0.903908 166.504 23.0949C138.547 41.8849 124.054 89.8139 164.916 105.906ZM135.953 50.6509C135.915 50.6329 135.877 50.6239 135.838 50.6059C136.054 50.5109 136.27 50.4159 136.485 50.3189C136.415 50.5019 136.339 50.6829 136.271 50.8659C136.165 50.7929 136.072 50.7079 135.953 50.6509Z" transform="translate(13.99969 7.999794)" fill="#000000" fill-rule="evenodd" stroke="none"></path></g></g></g></g></svg>